<svg xmlns="http://www.w3.org/2000/svg" viewBox="0 0 150.61 71.9"><defs><style>.cls-1{font-size:28.33px;fill:#07dd34;font-family:HelveticaNeue-Bold, Helvetica Neue;font-weight:700;}.cls-2{fill:#f60;}</style></defs><title>buzzBin</title><g id="Layer_2" data-name="Layer 2"><g id="logo"><text class="cls-1" transform="translate(62.54 24.28)">Buzz<tspan x="0" y="34">Bin</tspan></text><rect class="cls-2" y="4" width="56.14" height="56.14"/><rect x="24.89" y="23.82" width="6.41" height="6.41"/><path d="M28.07,18.3c2.22,0,4,1,4,4H24C24,19.33,25.85,18.3,28.07,18.3Z"/><path d="M12.72,35.29A5.24,5.24,0,0,1,12,24.87l-.43-1a6.62,6.62,0,1,0,4.91,11.57l-.53-1.25A5.21,5.21,0,0,1,12.72,35.29Z"/><path d="M12.13,23.82l-.46,0h.46Z"/><path d="M12.35,23.83a5.73,5.73,0,0,1,3,.93l5.74-.14v5.23L18.3,32.22a6.44,6.44,0,0,1-1.92,3.2h.12l6.59-5.25V23.57Z"/><path d="M11.57,23.85h0Z"/><path d="M18.5,32.22,16.26,34l0-.07-.29.24.53,1.25A6.61,6.61,0,0,0,18.5,32.22Z"/><path d="M12.72,24.81h.18l2.61-.06a6.58,6.58,0,0,0-3.22-.93h-.72l.43,1A5.26,5.26,0,0,1,12.72,24.81Z"/><path d="M43.65,35.29a5.24,5.24,0,0,0,.72-10.42l.43-1A6.62,6.62,0,1,1,39.9,35.42l.53-1.25A5.21,5.21,0,0,0,43.65,35.29Z"/><path d="M44.25,23.82l.46,0h-.46Z"/><path d="M43.91,23.83a7.85,7.85,0,0,0-3.54.93l-6.29-.14v5.23l3.39,2.37a7,7,0,0,0,2.22,3.2h-.07l-6.54-5.25V23.57Z"/><path d="M44.81,23.85h0Z"/><path d="M37.88,32.22,40.11,34l0-.07.29.24-.53,1.25A6.61,6.61,0,0,1,37.88,32.22Z"/><path d="M43.65,24.81h-.18l-2.61-.06a6.58,6.58,0,0,1,3.22-.93h.72l-.43,1A5.26,5.26,0,0,0,43.65,24.81Z"/><path d="M28.08,36.33H21.79a9.7,9.7,0,0,0,.17,2h6.12Z"/><path d="M28.08,40.33H22.34c.26,1,.61,2,1.11,4h4.64Z"/><path d="M24.39,45.33c.92,1,1.69,2.81,3.69,4.39V45.33Z"/><path d="M28.08,32.33H23s-.65,1-1,1h6.11Z"/><path d="M28.08,44.33H32.9c.51-2,.89-3,1.16-4h-6Z"/><path d="M34.5,33.33c-.32,0-1-1-1-1H28.08v1Z"/><path d="M28.08,38.33h6.38a10.72,10.72,0,0,0,.2-2H28.08Z"/><path d="M28.08,49.71c2-1.58,2.89-3.39,3.84-4.39H28.08Z"/></g></g></svg>